<?xml version="1.0" encoding="utf-8" ?>
<svg baseProfile="full" height="350.0" version="1.1" width="350.0" xmlns="http://www.w3.org/2000/svg" xmlns:ev="http://www.w3.org/2001/xml-events" xmlns:xlink="http://www.w3.org/1999/xlink"><defs /><rect fill="white" height="58.333333333333336" stroke="none" width="58.333333333333336" x="0.0" y="0.0" /><line stroke="black" stroke-width="1" x1="0.0" x2="58.333333333333336" y1="0.0" y2="0.0" /><line stroke="black" stroke-width="1" x1="0.0" x2="0.0" y1="58.333333333333336" y2="0.0" /><line stroke="black" stroke-width="1" x1="58.333333333333336" x2="0.0" y1="58.333333333333336" y2="58.333333333333336" /><rect fill="white" height="58.333333333333336" stroke="none" width="58.333333333333336" x="58.333333333333336" y="0.0" /><circle cx="76.5625" cy="18.229166666666668" fill="black" r="7.291666666666667" /><circle cx="98.4375" cy="40.10416666666667" fill="black" r="7.291666666666667" /><line stroke="black" stroke-width="1" x1="58.333333333333336" x2="116.66666666666667" y1="0.0" y2="0.0" /><line stroke="black" stroke-width="1" x1="116.66666666666667" x2="116.66666666666667" y1="0.0" y2="58.333333333333336" /><line stroke="black" stroke-width="1" x1="116.66666666666667" x2="58.333333333333336" y1="58.333333333333336" y2="58.333333333333336" /><line stroke="#DDDDDD" stroke-width="1" x1="58.333333333333336" x2="58.333333333333336" y1="58.333333333333336" y2="0.0" /><rect fill="white" height="58.333333333333336" stroke="none" width="58.333333333333336" x="116.66666666666667" y="0.0" /><circle cx="145.83333333333334" cy="29.166666666666668" fill="black" r="7.291666666666667" /><line stroke="black" stroke-width="1" x1="116.66666666666667" x2="175.0" y1="0.0" y2="0.0" /><line stroke="black" stroke-width="1" x1="116.66666666666667" x2="116.66666666666667" y1="58.333333333333336" y2="0.0" /><line stroke="black" stroke-width="1" x1="175.0" x2="175.0" y1="0.0" y2="58.333333333333336" /><line stroke="#DDDDDD" stroke-width="1" x1="175.0" x2="116.66666666666667" y1="58.333333333333336" y2="58.333333333333336" /><rect fill="white" height="58.333333333333336" stroke="none" width="58.333333333333336" x="175.0" y="0.0" /><rect fill="gray" height="56.333333333333336" stroke="black" width="56.333333333333336" x="176.0" y="1.0" /><rect fill="white" height="58.333333333333336" stroke="none" width="58.333333333333336" x="233.33333333333334" y="0.0" /><rect fill="gray" height="56.333333333333336" stroke="black" width="56.333333333333336" x="234.33333333333334" y="1.0" /><rect fill="white" height="58.333333333333336" stroke="none" width="58.333333333333336" x="291.6666666666667" y="0.0" /><circle cx="320.83333333333337" cy="29.166666666666668" fill="black" r="7.291666666666667" /><line stroke="black" stroke-width="1" x1="291.6666666666667" x2="350.0" y1="0.0" y2="0.0" /><line stroke="black" stroke-width="1" x1="291.6666666666667" x2="291.6666666666667" y1="58.333333333333336" y2="0.0" /><line stroke="black" stroke-width="1" x1="350.0" x2="350.0" y1="0.0" y2="58.333333333333336" /><line stroke="#DDDDDD" stroke-width="1" x1="350.0" x2="291.6666666666667" y1="58.333333333333336" y2="58.333333333333336" /><rect fill="white" height="58.333333333333336" stroke="none" width="58.333333333333336" x="0.0" y="58.333333333333336" /><rect fill="gray" height="56.333333333333336" stroke="black" width="56.333333333333336" x="1.0" y="59.333333333333336" /><rect fill="white" height="58.333333333333336" stroke="none" width="58.333333333333336" x="58.333333333333336" y="58.333333333333336" /><circle cx="87.5" cy="87.5" fill="black" r="7.291666666666667" /><line stroke="black" stroke-width="1" x1="58.333333333333336" x2="116.66666666666667" y1="58.333333333333336" y2="58.333333333333336" /><line stroke="black" stroke-width="1" x1="58.333333333333336" x2="58.333333333333336" y1="116.66666666666667" y2="58.333333333333336" /><line stroke="black" stroke-width="1" x1="116.66666666666667" x2="116.66666666666667" y1="58.333333333333336" y2="116.66666666666667" /><line stroke="#DDDDDD" stroke-width="1" x1="116.66666666666667" x2="58.333333333333336" y1="116.66666666666667" y2="116.66666666666667" /><rect fill="white" height="58.333333333333336" stroke="none" width="58.333333333333336" x="116.66666666666667" y="58.333333333333336" /><line stroke="black" stroke-width="1" x1="116.66666666666667" x2="116.66666666666667" y1="116.66666666666667" y2="58.333333333333336" /><line stroke="black" stroke-width="1" x1="175.0" x2="175.0" y1="58.333333333333336" y2="116.66666666666667" /><line stroke="black" stroke-width="1" x1="175.0" x2="116.66666666666667" y1="116.66666666666667" y2="116.66666666666667" /><rect fill="white" height="58.333333333333336" stroke="none" width="58.333333333333336" x="175.0" y="58.333333333333336" /><rect fill="gray" height="56.333333333333336" stroke="black" width="56.333333333333336" x="176.0" y="59.333333333333336" /><rect fill="white" height="58.333333333333336" stroke="none" width="58.333333333333336" x="233.33333333333334" y="58.333333333333336" /><circle cx="262.5" cy="87.5" fill="black" r="7.291666666666667" /><line stroke="black" stroke-width="1" x1="233.33333333333334" x2="291.6666666666667" y1="58.333333333333336" y2="58.333333333333336" /><line stroke="black" stroke-width="1" x1="233.33333333333334" x2="233.33333333333334" y1="116.66666666666667" y2="58.333333333333336" /><line stroke="black" stroke-width="1" x1="291.6666666666667" x2="291.6666666666667" y1="58.333333333333336" y2="116.66666666666667" /><line stroke="#DDDDDD" stroke-width="1" x1="291.6666666666667" x2="233.33333333333334" y1="116.66666666666667" y2="116.66666666666667" /><rect fill="white" height="58.333333333333336" stroke="none" width="58.333333333333336" x="291.6666666666667" y="58.333333333333336" /><line stroke="black" stroke-width="1" x1="291.6666666666667" x2="291.6666666666667" y1="116.66666666666667" y2="58.333333333333336" /><line stroke="black" stroke-width="1" x1="350.0" x2="350.0" y1="58.333333333333336" y2="116.66666666666667" /><line stroke="black" stroke-width="1" x1="350.0" x2="291.6666666666667" y1="116.66666666666667" y2="116.66666666666667" /><rect fill="white" height="58.333333333333336" stroke="none" width="58.333333333333336" x="0.0" y="116.66666666666667" /><circle cx="29.166666666666668" cy="145.83333333333334" fill="black" r="7.291666666666667" /><line stroke="black" stroke-width="1" x1="0.0" x2="58.333333333333336" y1="116.66666666666667" y2="116.66666666666667" /><line stroke="black" stroke-width="1" x1="0.0" x2="0.0" y1="175.0" y2="116.66666666666667" /><line stroke="black" stroke-width="1" x1="58.333333333333336" x2="58.333333333333336" y1="116.66666666666667" y2="175.0" /><line stroke="#DDDDDD" stroke-width="1" x1="58.333333333333336" x2="0.0" y1="175.0" y2="175.0" /><rect fill="white" height="58.333333333333336" stroke="none" width="58.333333333333336" x="58.333333333333336" y="116.66666666666667" /><line stroke="black" stroke-width="1" x1="58.333333333333336" x2="58.333333333333336" y1="175.0" y2="116.66666666666667" /><line stroke="black" stroke-width="1" x1="116.66666666666667" x2="116.66666666666667" y1="116.66666666666667" y2="175.0" /><line stroke="black" stroke-width="1" x1="116.66666666666667" x2="58.333333333333336" y1="175.0" y2="175.0" /><rect fill="white" height="58.333333333333336" stroke="none" width="58.333333333333336" x="116.66666666666667" y="116.66666666666667" /><line stroke="black" stroke-width="1" x1="116.66666666666667" x2="175.0" y1="116.66666666666667" y2="116.66666666666667" /><line stroke="black" stroke-width="1" x1="116.66666666666667" x2="116.66666666666667" y1="175.0" y2="116.66666666666667" /><line stroke="black" stroke-width="1" x1="175.0" x2="116.66666666666667" y1="175.0" y2="175.0" /><rect fill="white" height="58.333333333333336" stroke="none" width="58.333333333333336" x="175.0" y="116.66666666666667" /><circle cx="193.22916666666666" cy="134.89583333333334" fill="black" r="7.291666666666667" /><circle cx="215.10416666666666" cy="156.77083333333334" fill="black" r="7.291666666666667" /><line stroke="black" stroke-width="1" x1="175.0" x2="233.33333333333334" y1="116.66666666666667" y2="116.66666666666667" /><line stroke="black" stroke-width="1" x1="233.33333333333334" x2="233.33333333333334" y1="116.66666666666667" y2="175.0" /><line stroke="black" stroke-width="1" x1="233.33333333333334" x2="175.0" y1="175.0" y2="175.0" /><line stroke="#DDDDDD" stroke-width="1" x1="175.0" x2="175.0" y1="175.0" y2="116.66666666666667" /><rect fill="white" height="58.333333333333336" stroke="none" width="58.333333333333336" x="233.33333333333334" y="116.66666666666667" /><line stroke="black" stroke-width="1" x1="233.33333333333334" x2="233.33333333333334" y1="175.0" y2="116.66666666666667" /><line stroke="black" stroke-width="1" x1="291.6666666666667" x2="291.6666666666667" y1="116.66666666666667" y2="175.0" /><line stroke="black" stroke-width="1" x1="291.6666666666667" x2="233.33333333333334" y1="175.0" y2="175.0" /><rect fill="white" height="58.333333333333336" stroke="none" width="58.333333333333336" x="291.6666666666667" y="116.66666666666667" /><circle cx="320.83333333333337" cy="145.83333333333334" fill="black" r="7.291666666666667" /><line stroke="black" stroke-width="1" x1="291.6666666666667" x2="350.0" y1="116.66666666666667" y2="116.66666666666667" /><line stroke="black" stroke-width="1" x1="291.6666666666667" x2="291.6666666666667" y1="175.0" y2="116.66666666666667" /><line stroke="black" stroke-width="1" x1="350.0" x2="350.0" y1="116.66666666666667" y2="175.0" /><line stroke="#DDDDDD" stroke-width="1" x1="350.0" x2="291.6666666666667" y1="175.0" y2="175.0" /><rect fill="white" height="58.333333333333336" stroke="none" width="58.333333333333336" x="0.0" y="175.0" /><line stroke="black" stroke-width="1" x1="0.0" x2="0.0" y1="233.33333333333334" y2="175.0" /><line stroke="black" stroke-width="1" x1="58.333333333333336" x2="58.333333333333336" y1="175.0" y2="233.33333333333334" /><line stroke="black" stroke-width="1" x1="58.333333333333336" x2="0.0" y1="233.33333333333334" y2="233.33333333333334" /><rect fill="white" height="58.333333333333336" stroke="none" width="58.333333333333336" x="58.333333333333336" y="175.0" /><line stroke="black" stroke-width="1" x1="58.333333333333336" x2="116.66666666666667" y1="175.0" y2="175.0" /><line stroke="black" stroke-width="1" x1="58.333333333333336" x2="58.333333333333336" y1="233.33333333333334" y2="175.0" /><line stroke="black" stroke-width="1" x1="116.66666666666667" x2="58.333333333333336" y1="233.33333333333334" y2="233.33333333333334" /><rect fill="white" height="58.333333333333336" stroke="none" width="58.333333333333336" x="116.66666666666667" y="175.0" /><circle cx="134.89583333333334" cy="193.22916666666666" fill="black" r="7.291666666666667" /><circle cx="156.77083333333334" cy="215.10416666666666" fill="black" r="7.291666666666667" /><line stroke="black" stroke-width="1" x1="116.66666666666667" x2="175.0" y1="175.0" y2="175.0" /><line stroke="black" stroke-width="1" x1="175.0" x2="175.0" y1="175.0" y2="233.33333333333334" /><line stroke="black" stroke-width="1" x1="175.0" x2="116.66666666666667" y1="233.33333333333334" y2="233.33333333333334" /><line stroke="#DDDDDD" stroke-width="1" x1="116.66666666666667" x2="116.66666666666667" y1="233.33333333333334" y2="175.0" /><rect fill="white" height="58.333333333333336" stroke="none" width="58.333333333333336" x="175.0" y="175.0" /><line stroke="black" stroke-width="1" x1="175.0" x2="233.33333333333334" y1="175.0" y2="175.0" /><line stroke="black" stroke-width="1" x1="175.0" x2="175.0" y1="233.33333333333334" y2="175.0" /><line stroke="black" stroke-width="1" x1="233.33333333333334" x2="175.0" y1="233.33333333333334" y2="233.33333333333334" /><rect fill="white" height="58.333333333333336" stroke="none" width="58.333333333333336" x="233.33333333333334" y="175.0" /><circle cx="251.5625" cy="193.22916666666666" fill="black" r="7.291666666666667" /><circle cx="273.4375" cy="215.10416666666666" fill="black" r="7.291666666666667" /><line stroke="black" stroke-width="1" x1="233.33333333333334" x2="291.6666666666667" y1="175.0" y2="175.0" /><line stroke="black" stroke-width="1" x1="291.6666666666667" x2="291.6666666666667" y1="175.0" y2="233.33333333333334" /><line stroke="black" stroke-width="1" x1="291.6666666666667" x2="233.33333333333334" y1="233.33333333333334" y2="233.33333333333334" /><line stroke="#DDDDDD" stroke-width="1" x1="233.33333333333334" x2="233.33333333333334" y1="233.33333333333334" y2="175.0" /><rect fill="white" height="58.333333333333336" stroke="none" width="58.333333333333336" x="291.6666666666667" y="175.0" /><line stroke="black" stroke-width="1" x1="291.6666666666667" x2="291.6666666666667" y1="233.33333333333334" y2="175.0" /><line stroke="black" stroke-width="1" x1="350.0" x2="350.0" y1="175.0" y2="233.33333333333334" /><line stroke="black" stroke-width="1" x1="350.0" x2="291.6666666666667" y1="233.33333333333334" y2="233.33333333333334" /><rect fill="white" height="58.333333333333336" stroke="none" width="58.333333333333336" x="0.0" y="233.33333333333334" /><circle cx="29.166666666666668" cy="262.5" fill="black" r="7.291666666666667" /><line stroke="black" stroke-width="1" x1="0.0" x2="58.333333333333336" y1="233.33333333333334" y2="233.33333333333334" /><line stroke="black" stroke-width="1" x1="0.0" x2="0.0" y1="291.6666666666667" y2="233.33333333333334" /><line stroke="black" stroke-width="1" x1="58.333333333333336" x2="58.333333333333336" y1="233.33333333333334" y2="291.6666666666667" /><line stroke="#DDDDDD" stroke-width="1" x1="58.333333333333336" x2="0.0" y1="291.6666666666667" y2="291.6666666666667" /><rect fill="white" height="58.333333333333336" stroke="none" width="58.333333333333336" x="58.333333333333336" y="233.33333333333334" /><circle cx="87.5" cy="262.5" fill="black" r="7.291666666666667" /><line stroke="black" stroke-width="1" x1="58.333333333333336" x2="116.66666666666667" y1="233.33333333333334" y2="233.33333333333334" /><line stroke="black" stroke-width="1" x1="58.333333333333336" x2="58.333333333333336" y1="291.6666666666667" y2="233.33333333333334" /><line stroke="black" stroke-width="1" x1="116.66666666666667" x2="116.66666666666667" y1="233.33333333333334" y2="291.6666666666667" /><line stroke="#DDDDDD" stroke-width="1" x1="116.66666666666667" x2="58.333333333333336" y1="291.6666666666667" y2="291.6666666666667" /><rect fill="white" height="58.333333333333336" stroke="none" width="58.333333333333336" x="116.66666666666667" y="233.33333333333334" /><line stroke="black" stroke-width="1" x1="116.66666666666667" x2="175.0" y1="233.33333333333334" y2="233.33333333333334" /><line stroke="black" stroke-width="1" x1="116.66666666666667" x2="116.66666666666667" y1="291.6666666666667" y2="233.33333333333334" /><line stroke="black" stroke-width="1" x1="175.0" x2="116.66666666666667" y1="291.6666666666667" y2="291.6666666666667" /><rect fill="white" height="58.333333333333336" stroke="none" width="58.333333333333336" x="175.0" y="233.33333333333334" /><circle cx="193.22916666666666" cy="251.5625" fill="black" r="7.291666666666667" /><circle cx="215.10416666666666" cy="273.4375" fill="black" r="7.291666666666667" /><line stroke="black" stroke-width="1" x1="175.0" x2="233.33333333333334" y1="233.33333333333334" y2="233.33333333333334" /><line stroke="black" stroke-width="1" x1="233.33333333333334" x2="233.33333333333334" y1="233.33333333333334" y2="291.6666666666667" /><line stroke="black" stroke-width="1" x1="233.33333333333334" x2="175.0" y1="291.6666666666667" y2="291.6666666666667" /><line stroke="#DDDDDD" stroke-width="1" x1="175.0" x2="175.0" y1="291.6666666666667" y2="233.33333333333334" /><rect fill="white" height="58.333333333333336" stroke="none" width="58.333333333333336" x="233.33333333333334" y="233.33333333333334" /><rect fill="gray" height="56.333333333333336" stroke="black" width="56.333333333333336" x="234.33333333333334" y="234.33333333333334" /><rect fill="white" height="58.333333333333336" stroke="none" width="58.333333333333336" x="291.6666666666667" y="233.33333333333334" /><circle cx="320.83333333333337" cy="262.5" fill="black" r="7.291666666666667" /><line stroke="black" stroke-width="1" x1="291.6666666666667" x2="350.0" y1="233.33333333333334" y2="233.33333333333334" /><line stroke="black" stroke-width="1" x1="291.6666666666667" x2="291.6666666666667" y1="291.6666666666667" y2="233.33333333333334" /><line stroke="black" stroke-width="1" x1="350.0" x2="350.0" y1="233.33333333333334" y2="291.6666666666667" /><line stroke="#DDDDDD" stroke-width="1" x1="350.0" x2="291.6666666666667" y1="291.6666666666667" y2="291.6666666666667" /><rect fill="white" height="58.333333333333336" stroke="none" width="58.333333333333336" x="0.0" y="291.6666666666667" /><line stroke="black" stroke-width="1" x1="0.0" x2="0.0" y1="350.0" y2="291.6666666666667" /><line stroke="black" stroke-width="1" x1="58.333333333333336" x2="58.333333333333336" y1="291.6666666666667" y2="350.0" /><line stroke="black" stroke-width="1" x1="58.333333333333336" x2="0.0" y1="350.0" y2="350.0" /><rect fill="white" height="58.333333333333336" stroke="none" width="58.333333333333336" x="58.333333333333336" y="291.6666666666667" /><line stroke="black" stroke-width="1" x1="58.333333333333336" x2="58.333333333333336" y1="350.0" y2="291.6666666666667" /><line stroke="black" stroke-width="1" x1="116.66666666666667" x2="116.66666666666667" y1="291.6666666666667" y2="350.0" /><line stroke="black" stroke-width="1" x1="116.66666666666667" x2="58.333333333333336" y1="350.0" y2="350.0" /><rect fill="white" height="58.333333333333336" stroke="none" width="58.333333333333336" x="116.66666666666667" y="291.6666666666667" /><rect fill="gray" height="56.333333333333336" stroke="black" width="56.333333333333336" x="117.66666666666667" y="292.6666666666667" /><rect fill="white" height="58.333333333333336" stroke="none" width="58.333333333333336" x="175.0" y="291.6666666666667" /><line stroke="black" stroke-width="1" x1="175.0" x2="233.33333333333334" y1="291.6666666666667" y2="291.6666666666667" /><line stroke="black" stroke-width="1" x1="175.0" x2="175.0" y1="350.0" y2="291.6666666666667" /><line stroke="black" stroke-width="1" x1="233.33333333333334" x2="175.0" y1="350.0" y2="350.0" /><rect fill="white" height="58.333333333333336" stroke="none" width="58.333333333333336" x="233.33333333333334" y="291.6666666666667" /><circle cx="251.5625" cy="309.89583333333337" fill="black" r="7.291666666666667" /><circle cx="273.4375" cy="331.77083333333337" fill="black" r="7.291666666666667" /><line stroke="black" stroke-width="1" x1="233.33333333333334" x2="291.6666666666667" y1="291.6666666666667" y2="291.6666666666667" /><line stroke="black" stroke-width="1" x1="291.6666666666667" x2="291.6666666666667" y1="291.6666666666667" y2="350.0" /><line stroke="black" stroke-width="1" x1="291.6666666666667" x2="233.33333333333334" y1="350.0" y2="350.0" /><line stroke="#DDDDDD" stroke-width="1" x1="233.33333333333334" x2="233.33333333333334" y1="350.0" y2="291.6666666666667" /><rect fill="white" height="58.333333333333336" stroke="none" width="58.333333333333336" x="291.6666666666667" y="291.6666666666667" /><line stroke="black" stroke-width="1" x1="291.6666666666667" x2="291.6666666666667" y1="350.0" y2="291.6666666666667" /><line stroke="black" stroke-width="1" x1="350.0" x2="350.0" y1="291.6666666666667" y2="350.0" /><line stroke="black" stroke-width="1" x1="350.0" x2="291.6666666666667" y1="350.0" y2="350.0" /></svg>